<mxfile host="app.diagrams.net" agent="Mozilla/5.0 (X11; Ubuntu; Linux x86_64; rv:134.0) Gecko/20100101 Firefox/134.0" version="26.0.7">
  <diagram name="Page-1" id="J6rT5Dojqv4Clk6HXU6r">
    <mxGraphModel dx="1049" dy="612" grid="1" gridSize="10" guides="1" tooltips="1" connect="1" arrows="1" fold="1" page="1" pageScale="1" pageWidth="3300" pageHeight="4681" math="0" shadow="0">
      <root>
        <mxCell id="0" />
        <mxCell id="1" parent="0" />
        <mxCell id="n7MOdd3F1V3n82O2iocI-1" value="" style="endArrow=classic;html=1;rounded=0;exitX=0.5;exitY=1;exitDx=0;exitDy=0;" edge="1" parent="1">
          <mxGeometry width="50" height="50" relative="1" as="geometry">
            <mxPoint x="683.5999999999999" y="130" as="sourcePoint" />
            <mxPoint x="683.5999999999999" y="170" as="targetPoint" />
          </mxGeometry>
        </mxCell>
        <mxCell id="n7MOdd3F1V3n82O2iocI-2" value="" style="ellipse;whiteSpace=wrap;html=1;aspect=fixed;fillColor=light-dark(#464a4e, #7d8c9b);strokeColor=#314354;fontColor=#ffffff;" vertex="1" parent="1">
          <mxGeometry x="659.06" y="80" width="50" height="50" as="geometry" />
        </mxCell>
        <mxCell id="n7MOdd3F1V3n82O2iocI-21" style="edgeStyle=orthogonalEdgeStyle;rounded=0;orthogonalLoop=1;jettySize=auto;html=1;exitX=0.5;exitY=1;exitDx=0;exitDy=0;" edge="1" parent="1" source="n7MOdd3F1V3n82O2iocI-3" target="n7MOdd3F1V3n82O2iocI-20">
          <mxGeometry relative="1" as="geometry" />
        </mxCell>
        <mxCell id="n7MOdd3F1V3n82O2iocI-3" value="کاربر روی گزینه &quot;عریضه نویسی&quot; کلیک میکند" style="rounded=1;whiteSpace=wrap;html=1;fillColor=#f5f5f5;gradientColor=#b3b3b3;strokeColor=#666666;" vertex="1" parent="1">
          <mxGeometry x="624.06" y="170" width="120" height="60" as="geometry" />
        </mxCell>
        <mxCell id="n7MOdd3F1V3n82O2iocI-20" value="" style="html=1;points=[];perimeter=orthogonalPerimeter;fillColor=strokeColor;direction=south;" vertex="1" parent="1">
          <mxGeometry x="468.12" y="280" width="431.88" height="5" as="geometry" />
        </mxCell>
        <mxCell id="n7MOdd3F1V3n82O2iocI-22" value="" style="endArrow=classic;html=1;rounded=0;entryX=0.5;entryY=0;entryDx=0;entryDy=0;" edge="1" parent="1">
          <mxGeometry width="50" height="50" relative="1" as="geometry">
            <mxPoint x="510" y="286" as="sourcePoint" />
            <mxPoint x="510" y="350" as="targetPoint" />
          </mxGeometry>
        </mxCell>
        <mxCell id="n7MOdd3F1V3n82O2iocI-23" value="" style="endArrow=classic;html=1;rounded=0;exitX=1;exitY=0.178;exitDx=0;exitDy=0;exitPerimeter=0;" edge="1" parent="1">
          <mxGeometry width="50" height="50" relative="1" as="geometry">
            <mxPoint x="844.1524999999998" y="285" as="sourcePoint" />
            <mxPoint x="844.13" y="360" as="targetPoint" />
          </mxGeometry>
        </mxCell>
        <mxCell id="n7MOdd3F1V3n82O2iocI-46" style="edgeStyle=orthogonalEdgeStyle;rounded=0;orthogonalLoop=1;jettySize=auto;html=1;exitX=0.5;exitY=1;exitDx=0;exitDy=0;entryX=0.5;entryY=0;entryDx=0;entryDy=0;" edge="1" parent="1" source="n7MOdd3F1V3n82O2iocI-24" target="n7MOdd3F1V3n82O2iocI-45">
          <mxGeometry relative="1" as="geometry" />
        </mxCell>
        <mxCell id="n7MOdd3F1V3n82O2iocI-24" value="گزینه دیدن درخواست های قبلی کاربر برای عریضه نویسی ظاهر میشود" style="rounded=1;whiteSpace=wrap;html=1;fillColor=#f5f5f5;gradientColor=#b3b3b3;strokeColor=#666666;" vertex="1" parent="1">
          <mxGeometry x="780" y="360" width="120" height="60" as="geometry" />
        </mxCell>
        <mxCell id="n7MOdd3F1V3n82O2iocI-27" style="edgeStyle=orthogonalEdgeStyle;rounded=0;orthogonalLoop=1;jettySize=auto;html=1;exitX=0.5;exitY=1;exitDx=0;exitDy=0;" edge="1" parent="1" source="n7MOdd3F1V3n82O2iocI-25">
          <mxGeometry relative="1" as="geometry">
            <mxPoint x="501.88" y="460" as="targetPoint" />
          </mxGeometry>
        </mxCell>
        <mxCell id="n7MOdd3F1V3n82O2iocI-25" value="کاربر موضوع عریضه خود را در بخش مربوطه وارد میکند" style="rounded=1;whiteSpace=wrap;html=1;fillColor=#f5f5f5;gradientColor=#b3b3b3;strokeColor=#666666;" vertex="1" parent="1">
          <mxGeometry x="441.8800000000001" y="350" width="120" height="60" as="geometry" />
        </mxCell>
        <mxCell id="n7MOdd3F1V3n82O2iocI-34" style="edgeStyle=orthogonalEdgeStyle;rounded=0;orthogonalLoop=1;jettySize=auto;html=1;exitX=0;exitY=0.5;exitDx=0;exitDy=0;" edge="1" parent="1" source="n7MOdd3F1V3n82O2iocI-29">
          <mxGeometry relative="1" as="geometry">
            <mxPoint x="271.88" y="570" as="targetPoint" />
          </mxGeometry>
        </mxCell>
        <mxCell id="n7MOdd3F1V3n82O2iocI-35" value="&lt;div&gt;موضوع انتخابی جز &lt;br&gt;&lt;/div&gt;&lt;div&gt;موضوعات اصلی عریضه&lt;/div&gt;&lt;div&gt;نویسی نیست&lt;br&gt;&lt;/div&gt;" style="edgeLabel;html=1;align=center;verticalAlign=middle;resizable=0;points=[];" vertex="1" connectable="0" parent="n7MOdd3F1V3n82O2iocI-34">
          <mxGeometry x="-0.0019" y="-2" relative="1" as="geometry">
            <mxPoint as="offset" />
          </mxGeometry>
        </mxCell>
        <mxCell id="n7MOdd3F1V3n82O2iocI-40" style="edgeStyle=orthogonalEdgeStyle;rounded=0;orthogonalLoop=1;jettySize=auto;html=1;exitX=1;exitY=0.5;exitDx=0;exitDy=0;" edge="1" parent="1" source="n7MOdd3F1V3n82O2iocI-29">
          <mxGeometry relative="1" as="geometry">
            <mxPoint x="631.8799999999998" y="600" as="targetPoint" />
          </mxGeometry>
        </mxCell>
        <mxCell id="n7MOdd3F1V3n82O2iocI-41" value="&lt;div&gt;موضوع وارد شده&lt;/div&gt;&lt;div&gt;در عریضه نویسی &lt;br&gt;&lt;/div&gt;&lt;div&gt;معتبر است&lt;br&gt;&lt;/div&gt;" style="edgeLabel;html=1;align=center;verticalAlign=middle;resizable=0;points=[];" vertex="1" connectable="0" parent="n7MOdd3F1V3n82O2iocI-40">
          <mxGeometry x="-0.3898" y="-1" relative="1" as="geometry">
            <mxPoint as="offset" />
          </mxGeometry>
        </mxCell>
        <mxCell id="n7MOdd3F1V3n82O2iocI-29" value="" style="rhombus;whiteSpace=wrap;html=1;" vertex="1" parent="1">
          <mxGeometry x="461.88" y="470" width="80" height="50" as="geometry" />
        </mxCell>
        <mxCell id="n7MOdd3F1V3n82O2iocI-38" style="edgeStyle=orthogonalEdgeStyle;rounded=0;orthogonalLoop=1;jettySize=auto;html=1;exitX=0.5;exitY=1;exitDx=0;exitDy=0;entryX=0.5;entryY=0;entryDx=0;entryDy=0;" edge="1" parent="1" source="n7MOdd3F1V3n82O2iocI-32" target="n7MOdd3F1V3n82O2iocI-37">
          <mxGeometry relative="1" as="geometry" />
        </mxCell>
        <mxCell id="n7MOdd3F1V3n82O2iocI-32" value="پیغام خطای مربوطه به کاربر نمایش داده میشود" style="rounded=1;whiteSpace=wrap;html=1;fillColor=#f5f5f5;gradientColor=#b3b3b3;strokeColor=#666666;" vertex="1" parent="1">
          <mxGeometry x="200.0000000000001" y="580" width="120" height="60" as="geometry" />
        </mxCell>
        <mxCell id="n7MOdd3F1V3n82O2iocI-36" value="" style="shape=sumEllipse;perimeter=ellipsePerimeter;html=1;backgroundOutline=1;" vertex="1" parent="1">
          <mxGeometry x="245" y="790" width="30" height="30" as="geometry" />
        </mxCell>
        <mxCell id="n7MOdd3F1V3n82O2iocI-39" style="edgeStyle=orthogonalEdgeStyle;rounded=0;orthogonalLoop=1;jettySize=auto;html=1;exitX=0.5;exitY=1;exitDx=0;exitDy=0;entryX=0.5;entryY=0;entryDx=0;entryDy=0;" edge="1" parent="1" source="n7MOdd3F1V3n82O2iocI-37" target="n7MOdd3F1V3n82O2iocI-36">
          <mxGeometry relative="1" as="geometry" />
        </mxCell>
        <mxCell id="n7MOdd3F1V3n82O2iocI-37" value="کاربر به منوی اصلی بازگردانده میشود" style="rounded=1;whiteSpace=wrap;html=1;fillColor=#f5f5f5;gradientColor=#b3b3b3;strokeColor=#666666;" vertex="1" parent="1">
          <mxGeometry x="200.0000000000001" y="680" width="120" height="60" as="geometry" />
        </mxCell>
        <mxCell id="n7MOdd3F1V3n82O2iocI-59" style="edgeStyle=orthogonalEdgeStyle;rounded=0;orthogonalLoop=1;jettySize=auto;html=1;exitX=0.5;exitY=1;exitDx=0;exitDy=0;entryX=0.061;entryY=0.756;entryDx=0;entryDy=0;entryPerimeter=0;" edge="1" parent="1" source="n7MOdd3F1V3n82O2iocI-42" target="n7MOdd3F1V3n82O2iocI-77">
          <mxGeometry relative="1" as="geometry">
            <mxPoint x="632" y="1360" as="targetPoint" />
          </mxGeometry>
        </mxCell>
        <mxCell id="n7MOdd3F1V3n82O2iocI-42" value="درخواست کاربر برای یک عریضه نویس ارسال میشود" style="rounded=1;whiteSpace=wrap;html=1;fillColor=#f5f5f5;gradientColor=#b3b3b3;strokeColor=#666666;" vertex="1" parent="1">
          <mxGeometry x="571.8800000000001" y="600" width="120" height="60" as="geometry" />
        </mxCell>
        <mxCell id="n7MOdd3F1V3n82O2iocI-48" style="edgeStyle=orthogonalEdgeStyle;rounded=0;orthogonalLoop=1;jettySize=auto;html=1;exitX=0.5;exitY=1;exitDx=0;exitDy=0;entryX=0.5;entryY=0;entryDx=0;entryDy=0;" edge="1" parent="1" source="n7MOdd3F1V3n82O2iocI-45" target="n7MOdd3F1V3n82O2iocI-47">
          <mxGeometry relative="1" as="geometry" />
        </mxCell>
        <mxCell id="n7MOdd3F1V3n82O2iocI-45" value="کاربر روی گزینه &quot;نمایش&quot; کلیک میکند" style="rounded=1;whiteSpace=wrap;html=1;fillColor=#f5f5f5;gradientColor=#b3b3b3;strokeColor=#666666;" vertex="1" parent="1">
          <mxGeometry x="778.1300000000001" y="455" width="120" height="60" as="geometry" />
        </mxCell>
        <mxCell id="n7MOdd3F1V3n82O2iocI-50" style="edgeStyle=orthogonalEdgeStyle;rounded=0;orthogonalLoop=1;jettySize=auto;html=1;exitX=0.5;exitY=1;exitDx=0;exitDy=0;entryX=0.5;entryY=0;entryDx=0;entryDy=0;" edge="1" parent="1" source="n7MOdd3F1V3n82O2iocI-47" target="n7MOdd3F1V3n82O2iocI-49">
          <mxGeometry relative="1" as="geometry">
            <mxPoint x="838.3478260869567" y="670" as="targetPoint" />
          </mxGeometry>
        </mxCell>
        <mxCell id="n7MOdd3F1V3n82O2iocI-47" value="لیستی از درخواست های قبلی کاربر نشان داده میشود" style="rounded=1;whiteSpace=wrap;html=1;fillColor=#f5f5f5;gradientColor=#b3b3b3;strokeColor=#666666;" vertex="1" parent="1">
          <mxGeometry x="778.1300000000001" y="580" width="120" height="60" as="geometry" />
        </mxCell>
        <mxCell id="n7MOdd3F1V3n82O2iocI-51" style="edgeStyle=orthogonalEdgeStyle;rounded=0;orthogonalLoop=1;jettySize=auto;html=1;exitX=1;exitY=0.5;exitDx=0;exitDy=0;entryX=0.5;entryY=0;entryDx=0;entryDy=0;" edge="1" parent="1" source="n7MOdd3F1V3n82O2iocI-49" target="n7MOdd3F1V3n82O2iocI-53">
          <mxGeometry relative="1" as="geometry">
            <mxPoint x="980" y="704.6521739130435" as="targetPoint" />
          </mxGeometry>
        </mxCell>
        <mxCell id="n7MOdd3F1V3n82O2iocI-54" value="دیدن درخواست خاص" style="edgeLabel;html=1;align=center;verticalAlign=middle;resizable=0;points=[];" vertex="1" connectable="0" parent="n7MOdd3F1V3n82O2iocI-51">
          <mxGeometry x="-0.1563" relative="1" as="geometry">
            <mxPoint as="offset" />
          </mxGeometry>
        </mxCell>
        <mxCell id="n7MOdd3F1V3n82O2iocI-57" style="edgeStyle=orthogonalEdgeStyle;rounded=0;orthogonalLoop=1;jettySize=auto;html=1;exitX=0;exitY=0.5;exitDx=0;exitDy=0;entryX=0.093;entryY=0.589;entryDx=0;entryDy=0;entryPerimeter=0;" edge="1" parent="1" source="n7MOdd3F1V3n82O2iocI-49" target="n7MOdd3F1V3n82O2iocI-75">
          <mxGeometry relative="1" as="geometry">
            <mxPoint x="740" y="1300" as="targetPoint" />
            <Array as="points">
              <mxPoint x="741" y="705" />
              <mxPoint x="741" y="1299" />
            </Array>
          </mxGeometry>
        </mxCell>
        <mxCell id="n7MOdd3F1V3n82O2iocI-58" value="&lt;div&gt;کاربر تمایل &lt;br&gt;&lt;/div&gt;&lt;div&gt;به دیدن درخواست&lt;/div&gt;&lt;div&gt;خاصی ندارد&lt;br&gt;&lt;/div&gt;" style="edgeLabel;html=1;align=center;verticalAlign=middle;resizable=0;points=[];" vertex="1" connectable="0" parent="n7MOdd3F1V3n82O2iocI-57">
          <mxGeometry x="-0.1015" y="1" relative="1" as="geometry">
            <mxPoint as="offset" />
          </mxGeometry>
        </mxCell>
        <mxCell id="n7MOdd3F1V3n82O2iocI-49" value="" style="rhombus;whiteSpace=wrap;html=1;" vertex="1" parent="1">
          <mxGeometry x="798.13" y="680" width="80" height="50" as="geometry" />
        </mxCell>
        <mxCell id="n7MOdd3F1V3n82O2iocI-56" style="edgeStyle=orthogonalEdgeStyle;rounded=0;orthogonalLoop=1;jettySize=auto;html=1;exitX=0.5;exitY=1;exitDx=0;exitDy=0;entryX=0.5;entryY=0;entryDx=0;entryDy=0;" edge="1" parent="1" source="n7MOdd3F1V3n82O2iocI-53" target="n7MOdd3F1V3n82O2iocI-55">
          <mxGeometry relative="1" as="geometry" />
        </mxCell>
        <mxCell id="n7MOdd3F1V3n82O2iocI-53" value="کاربر روی درخواست موردنظر خود کلیک میکند" style="rounded=1;whiteSpace=wrap;html=1;fillColor=#f5f5f5;gradientColor=#b3b3b3;strokeColor=#666666;" vertex="1" parent="1">
          <mxGeometry x="920.0000000000001" y="750" width="120" height="60" as="geometry" />
        </mxCell>
        <mxCell id="n7MOdd3F1V3n82O2iocI-61" style="edgeStyle=orthogonalEdgeStyle;rounded=0;orthogonalLoop=1;jettySize=auto;html=1;exitX=0.5;exitY=1;exitDx=0;exitDy=0;entryX=0.5;entryY=0;entryDx=0;entryDy=0;" edge="1" parent="1" source="n7MOdd3F1V3n82O2iocI-55" target="n7MOdd3F1V3n82O2iocI-60">
          <mxGeometry relative="1" as="geometry" />
        </mxCell>
        <mxCell id="n7MOdd3F1V3n82O2iocI-55" value="جزئیات درخواست و نتیجه آن به کاربر نمایش داده میشود" style="rounded=1;whiteSpace=wrap;html=1;fillColor=#f5f5f5;gradientColor=#b3b3b3;strokeColor=#666666;" vertex="1" parent="1">
          <mxGeometry x="920.0000000000001" y="860" width="120" height="60" as="geometry" />
        </mxCell>
        <mxCell id="n7MOdd3F1V3n82O2iocI-64" style="edgeStyle=orthogonalEdgeStyle;rounded=0;orthogonalLoop=1;jettySize=auto;html=1;exitX=0;exitY=0.5;exitDx=0;exitDy=0;" edge="1" parent="1" source="n7MOdd3F1V3n82O2iocI-60" target="n7MOdd3F1V3n82O2iocI-63">
          <mxGeometry relative="1" as="geometry" />
        </mxCell>
        <mxCell id="n7MOdd3F1V3n82O2iocI-65" value="قبول" style="edgeLabel;html=1;align=center;verticalAlign=middle;resizable=0;points=[];" vertex="1" connectable="0" parent="n7MOdd3F1V3n82O2iocI-64">
          <mxGeometry x="-0.1883" y="-1" relative="1" as="geometry">
            <mxPoint as="offset" />
          </mxGeometry>
        </mxCell>
        <mxCell id="n7MOdd3F1V3n82O2iocI-69" style="edgeStyle=orthogonalEdgeStyle;rounded=0;orthogonalLoop=1;jettySize=auto;html=1;exitX=1;exitY=0.5;exitDx=0;exitDy=0;" edge="1" parent="1" source="n7MOdd3F1V3n82O2iocI-60" target="n7MOdd3F1V3n82O2iocI-68">
          <mxGeometry relative="1" as="geometry" />
        </mxCell>
        <mxCell id="n7MOdd3F1V3n82O2iocI-70" value="رد" style="edgeLabel;html=1;align=center;verticalAlign=middle;resizable=0;points=[];" vertex="1" connectable="0" parent="n7MOdd3F1V3n82O2iocI-69">
          <mxGeometry x="-0.1062" relative="1" as="geometry">
            <mxPoint as="offset" />
          </mxGeometry>
        </mxCell>
        <mxCell id="n7MOdd3F1V3n82O2iocI-60" value="" style="rhombus;whiteSpace=wrap;html=1;" vertex="1" parent="1">
          <mxGeometry x="940" y="990" width="80" height="50" as="geometry" />
        </mxCell>
        <mxCell id="n7MOdd3F1V3n82O2iocI-71" style="edgeStyle=orthogonalEdgeStyle;rounded=0;orthogonalLoop=1;jettySize=auto;html=1;exitX=0.5;exitY=1;exitDx=0;exitDy=0;entryX=0;entryY=0.5;entryDx=0;entryDy=0;" edge="1" parent="1" source="n7MOdd3F1V3n82O2iocI-63" target="n7MOdd3F1V3n82O2iocI-73">
          <mxGeometry relative="1" as="geometry">
            <mxPoint x="838.3478260869567" y="1169.9999999999998" as="targetPoint" />
          </mxGeometry>
        </mxCell>
        <mxCell id="n7MOdd3F1V3n82O2iocI-63" value="کاربر عریضه نوشته شده را دریافت میکند" style="rounded=1;whiteSpace=wrap;html=1;fillColor=#f5f5f5;gradientColor=#b3b3b3;strokeColor=#666666;" vertex="1" parent="1">
          <mxGeometry x="778.1300000000001" y="1050" width="120" height="60" as="geometry" />
        </mxCell>
        <mxCell id="n7MOdd3F1V3n82O2iocI-72" style="edgeStyle=orthogonalEdgeStyle;rounded=0;orthogonalLoop=1;jettySize=auto;html=1;exitX=0.5;exitY=1;exitDx=0;exitDy=0;entryX=1;entryY=0.5;entryDx=0;entryDy=0;" edge="1" parent="1" source="n7MOdd3F1V3n82O2iocI-68" target="n7MOdd3F1V3n82O2iocI-73">
          <mxGeometry relative="1" as="geometry">
            <mxPoint x="1100.0869565217395" y="1169.9999999999998" as="targetPoint" />
          </mxGeometry>
        </mxCell>
        <mxCell id="n7MOdd3F1V3n82O2iocI-68" value="پیغام رد درخواست و نیاز به تلاش مجدد به کاربر نمایش داده میشود" style="rounded=1;whiteSpace=wrap;html=1;fillColor=#f5f5f5;gradientColor=#b3b3b3;strokeColor=#666666;" vertex="1" parent="1">
          <mxGeometry x="1040" y="1050" width="120" height="60" as="geometry" />
        </mxCell>
        <mxCell id="n7MOdd3F1V3n82O2iocI-74" style="edgeStyle=orthogonalEdgeStyle;rounded=0;orthogonalLoop=1;jettySize=auto;html=1;exitX=0.5;exitY=1;exitDx=0;exitDy=0;entryX=1;entryY=0.5;entryDx=0;entryDy=0;" edge="1" parent="1" source="n7MOdd3F1V3n82O2iocI-73" target="n7MOdd3F1V3n82O2iocI-75">
          <mxGeometry relative="1" as="geometry">
            <mxPoint x="980.0869565217395" y="1269.9999999999998" as="targetPoint" />
          </mxGeometry>
        </mxCell>
        <mxCell id="n7MOdd3F1V3n82O2iocI-73" value="" style="rhombus;whiteSpace=wrap;html=1;" vertex="1" parent="1">
          <mxGeometry x="940" y="1150" width="80" height="50" as="geometry" />
        </mxCell>
        <mxCell id="n7MOdd3F1V3n82O2iocI-76" style="edgeStyle=orthogonalEdgeStyle;rounded=0;orthogonalLoop=1;jettySize=auto;html=1;exitX=0.5;exitY=1;exitDx=0;exitDy=0;" edge="1" parent="1" source="n7MOdd3F1V3n82O2iocI-75">
          <mxGeometry relative="1" as="geometry">
            <mxPoint x="689.9999999999998" y="1360" as="targetPoint" />
          </mxGeometry>
        </mxCell>
        <mxCell id="n7MOdd3F1V3n82O2iocI-75" value="" style="rhombus;whiteSpace=wrap;html=1;" vertex="1" parent="1">
          <mxGeometry x="810" y="1270" width="80" height="50" as="geometry" />
        </mxCell>
        <mxCell id="n7MOdd3F1V3n82O2iocI-77" value="" style="html=1;points=[];perimeter=orthogonalPerimeter;fillColor=strokeColor;direction=south;" vertex="1" parent="1">
          <mxGeometry x="591.88" y="1360" width="158.12" height="5" as="geometry" />
        </mxCell>
        <mxCell id="n7MOdd3F1V3n82O2iocI-83" style="edgeStyle=orthogonalEdgeStyle;rounded=0;orthogonalLoop=1;jettySize=auto;html=1;exitX=0.5;exitY=1;exitDx=0;exitDy=0;entryX=0.5;entryY=0;entryDx=0;entryDy=0;" edge="1" parent="1" source="n7MOdd3F1V3n82O2iocI-78" target="n7MOdd3F1V3n82O2iocI-81">
          <mxGeometry relative="1" as="geometry" />
        </mxCell>
        <mxCell id="n7MOdd3F1V3n82O2iocI-78" value="فرآیند عریضه نویسی کامل میشود و کاربر به منوی اصلی بازمیگردد" style="rounded=1;whiteSpace=wrap;html=1;fillColor=#f5f5f5;gradientColor=#b3b3b3;strokeColor=#666666;" vertex="1" parent="1">
          <mxGeometry x="610.94" y="1410" width="120" height="60" as="geometry" />
        </mxCell>
        <mxCell id="n7MOdd3F1V3n82O2iocI-79" value="" style="endArrow=classic;html=1;rounded=0;exitX=0.985;exitY=0.529;exitDx=0;exitDy=0;exitPerimeter=0;entryX=0.462;entryY=-0.033;entryDx=0;entryDy=0;entryPerimeter=0;" edge="1" parent="1" source="n7MOdd3F1V3n82O2iocI-77" target="n7MOdd3F1V3n82O2iocI-78">
          <mxGeometry width="50" height="50" relative="1" as="geometry">
            <mxPoint x="760" y="1360" as="sourcePoint" />
            <mxPoint x="810" y="1310" as="targetPoint" />
          </mxGeometry>
        </mxCell>
        <mxCell id="n7MOdd3F1V3n82O2iocI-81" value="" style="ellipse;whiteSpace=wrap;html=1;aspect=fixed;" vertex="1" parent="1">
          <mxGeometry x="640.94" y="1530" width="60" height="60" as="geometry" />
        </mxCell>
        <mxCell id="n7MOdd3F1V3n82O2iocI-82" value="" style="ellipse;whiteSpace=wrap;html=1;aspect=fixed;fillColor=#647687;fontColor=#ffffff;strokeColor=#314354;" vertex="1" parent="1">
          <mxGeometry x="650.94" y="1540" width="40" height="40" as="geometry" />
        </mxCell>
      </root>
    </mxGraphModel>
  </diagram>
</mxfile>
